<?xml version="1.0" standalone="no"?>
<!DOCTYPE svg PUBLIC "-//W3C//DTD SVG 1.1//EN"
  "http://www.w3.org/Graphics/SVG/1.1/DTD/svg11.dtd">
<svg version="1.1" xmlns="http://www.w3.org/2000/svg" xmlns:xlink="http://www.w3.org/1999/xlink" width="1920" height="1080" viewBox="-1040.888888888889 -32 1889.7777777777778 1063" id="ccdiagram"><filter id="grayscale"><feColorMatrix type="matrix" values="0.3333 0.3333 0.3333 0 0 0.3333 0.3333 0.3333 0 0 0.3333 0.3333 0.3333 0 0 0 0 0 1 0"></feColorMatrix></filter><defs><style type="text/css">@import url('https://fonts.googleapis.com/css?family=Open+Sans:400,700|Inconsolata:400');</style></defs><g><rect x="-1040.888888888889" y="-32" width="1889.7777777777778" height="1063" fill="none" id="interactionLayer"></rect><g style="pointer-events: none;"><g><pattern id="gridPatternMinor" x="0" y="37" width="128" height="74" patternUnits="userSpaceOnUse"><path d="M 0 0 L 128 74" stroke="#eeeeee" stroke-width="1"></path><path d="M 128 0 L 0 74" stroke="#eeeeee" stroke-width="1"></path></pattern><polygon points="0 0, 768 444, -192 999, -960 555" fill="url(#gridPatternMinor)"></polygon></g><polygon points="-960 555, -960 565, -192 1009, -192 999" stroke="#54626f" fill="#f9f9f9" stroke-linejoin="round" stroke-width="1"></polygon><polygon points="-192 1009, 768 454, 768 444, -192 999" stroke="#54626f" fill="#e2e2e2" stroke-linejoin="round" stroke-width="1"></polygon></g><g pointer-events="auto"></g><g style="pointer-events: none;"><g><pattern id="gridPatternMajor" x="0" y="37" width="128" height="74" patternUnits="userSpaceOnUse"><path d="M 64 0 L 128 37 64 74 0 37 z" stroke="#54626f" stroke-width="1" fill="none"></path></pattern><polygon points="0 0, 768 444, -192 999, -960 555" fill="url(#gridPatternMajor)"></polygon></g></g><g pointer-events="auto"><g opacity="1"><g id="0254537e-ed28-4e05-9595-0b1892f3317f"><g><polygon points="-16 213, 368 435, 48 620, -336 398" fill="#ececed"></polygon><svg x="-46" y="106" overflow="visible"><g fill="#4286c5" fill-opacity="1" stroke="none" transform="scale(1.25) matrix(0.707 0.409 -0.707 0.409 0 0)"><path stroke="none" d="M144 93.924l-14.834 8.565v19.577l16.954 9.789 14.835-8.565-6.358-3.67-8.477 4.893-10.597-6.117V106.16l8.478-4.894z"></path><path stroke="none" d="M148.24 93.924v7.342l8.476 4.894v9.788l6.358 3.671v-17.13z"></path></g></svg><polygon points="-336 410, 48 632, 48 620, -336 398" fill="#d2d2d4" stroke="#83838a"></polygon><polygon points="48 632, 368 447, 368 435, 48 620" fill="#b8b8bb" stroke="#83838a"></polygon><polygon points="-336 416, 48 638, 48 632, -336 410" fill="#326ca2" stroke="#326ca2"></polygon><polygon points="48 638, 368 453, 368 447, 48 632" fill="#26527b" stroke="#26527b"></polygon><polygon points="-16 213, -336 398, -336 416, 48 638, 368 453, 368 435" fill="none" stroke="#000000" stroke-width="2"></polygon><clipPath id="clip-0254537e-ed28-4e05-9595-0b1892f3317f"><rect x="248.7375" y="271.34999999999997" width="533.6550000000001" height="452.25"></rect></clipPath><text font-family="Open Sans" font-size="32pt" fill="#000000" font-weight="bold" x="307.53000000000003" y="316.575" stroke="#ffffff" stroke-width="4" transform="matrix(0.707 0.409 -0.707 0.409 0 0)" clip-path="url(#clip-0254537e-ed28-4e05-9595-0b1892f3317f)"><tspan>ECS Cluster</tspan></text><text font-family="Open Sans" font-size="32pt" fill="#000000" font-weight="bold" x="307.53000000000003" y="316.575" transform="matrix(0.707 0.409 -0.707 0.409 0 0)" clip-path="url(#clip-0254537e-ed28-4e05-9595-0b1892f3317f)"><tspan>ECS Cluster</tspan></text></g></g></g></g><g pointer-events="auto"></g><g></g><g pointer-events="auto"><g opacity="1"><g id="c136c105-8e27-4af1-8533-d42446f4650b"><g><g><polygon points="-96 833, 560 453, -16 120, -672 500" stroke="#03a9f4" stroke-width="8" fill="none"></polygon></g><g><polygon points="-16 120, -48 102, -272 231, -272 268" stroke="#03a9f4" stroke-width="8" fill="#03a9f4"></polygon><text font-family="Inconsolata" font-size="20pt" font-weight="bold" fill="#ffffff" transform="translate(-56 133) matrix(0.707 -0.409 0.707 0.409 0 0)" text-anchor="end">VPC</text><g transform="translate(-48 106) matrix(0.707 0.409 -0.707 0.409 0 0)"><svg width="34" height="32" style="fill: rgb(255, 255, 255);"><svg xmlns="http://www.w3.org/2000/svg" width="34" height="32" viewBox="0 0 34 32"><path d="M34.286 20.571a6.858 6.858 0 0 1-6.857 6.857H8c-4.411 0-8-3.589-8-8a7.993 7.993 0 0 1 4.607-7.232c-.018-.25-.036-.518-.036-.768a9.137 9.137 0 0 1 9.143-9.143c3.821 0 7.089 2.339 8.464 5.679a4.439 4.439 0 0 1 2.964-1.107 4.58 4.58 0 0 1 4.571 4.571 4.49 4.49 0 0 1-.732 2.464c3.036.714 5.304 3.429 5.304 6.679z"></path></svg></svg></g></g></g></g></g></g><g></g><g pointer-events="auto"></g><g pointer-events="auto"><g opacity="1"><g id="8aa5fd4f-4fde-4d31-b7b4-69322ea3ab5d"><g><polygon points="-16 287, 240 435, 48 546, -208 398" fill="#000000" opacity="0.5"></polygon><polygon points="-16 268, 240 416, 48 527, -208 379" fill="#fff"></polygon><polygon points="-208 389, 48 537, 48 527, -208 379" fill="#326ca2" stroke="#999"></polygon><polygon points="48 537, 240 426, 240 416, 48 527" fill="#26527b" stroke="#999"></polygon><polygon points="-16 268, -208 379, -208 389, 48 537, 240 426, 240 416" fill="none" stroke="#000000" stroke-width="2"></polygon><clipPath id="clip-8aa5fd4f-4fde-4d31-b7b4-69322ea3ab5d"><rect x="316.575" y="339.18750000000006" width="352.755" height="271.35"></rect></clipPath><text font-family="Open Sans" font-size="25pt" fill="#000000" font-weight="bold" x="325.62" y="375.36750000000006" stroke="#ffffff" stroke-width="4" transform="matrix(0.707 0.409 -0.707 0.409 0 0)" clip-path="url(#clip-8aa5fd4f-4fde-4d31-b7b4-69322ea3ab5d)"><tspan>ECS Service</tspan></text><text font-family="Open Sans" font-size="25pt" fill="#000000" font-weight="bold" x="325.62" y="375.36750000000006" transform="matrix(0.707 0.409 -0.707 0.409 0 0)" clip-path="url(#clip-8aa5fd4f-4fde-4d31-b7b4-69322ea3ab5d)"><tspan>ECS Service</tspan></text></g></g></g></g><g pointer-events="none"></g><g pointer-events="auto"><g id="ab927008-a345-4261-8f9a-46368bf28a04-f338cf9b-602e-4cc0-8416-7fa5a294574f"><g cursor="cell"><line x1="-207" y1="564" x2="6" y2="440" stroke="red" stroke-width="8" opacity="0"></line><line x1="-207" y1="564" x2="6" y2="440" stroke="#000000" stroke-width="2" stroke-linecap="round"></line><polygon points="16 435, -10 440, 4 442, 7 450, 16 435" stroke-linejoin="round" fill="#000000" stroke="#000000" stroke-width="1"></polygon></g></g><g id="153fe642-c09c-4b3d-be24-a59023169c1e-049ef3fa-3f71-48b8-9a97-56beab2cb340"><g cursor="cell"><line x1="-424" y1="689" x2="-298" y2="616" stroke="red" stroke-width="8" opacity="0"></line><line x1="-424" y1="689" x2="-298" y2="616" stroke="#000000" stroke-width="2" stroke-linecap="round"></line><polygon points="-288 611, -314 616, -300 618, -297 625, -288 611" stroke-linejoin="round" fill="#000000" stroke="#000000" stroke-width="1"></polygon></g></g><g id="9559d24b-a235-4a1f-921d-4a14073b2341-153fe642-c09c-4b3d-be24-a59023169c1e"><g cursor="cell"><line x1="-556" y1="765" x2="-490" y2="727" stroke="red" stroke-width="8" opacity="0"></line><line x1="-556" y1="765" x2="-490" y2="727" stroke="#000000" stroke-width="2" stroke-linecap="round"></line><polygon points="-480 722, -506 727, -492 729, -489 736, -480 722" stroke-linejoin="round" fill="#000000" stroke="#000000" stroke-width="1"></polygon></g></g><g id="ab927008-a345-4261-8f9a-46368bf28a04-297aeee2-a82a-424a-8003-b1548220b620"><g cursor="cell"><line x1="-207" y1="564" x2="-55" y2="405" stroke="red" stroke-width="8" opacity="0"></line><line x1="-207" y1="564" x2="-55" y2="405" stroke="#000000" stroke-width="2" stroke-linecap="round"></line><polygon points="-48 398, -70 407, -57 407, -50 413, -48 398" stroke-linejoin="round" fill="#000000" stroke="#000000" stroke-width="1"></polygon></g></g><g id="f338cf9b-602e-4cc0-8416-7fa5a294574f-8e58e4be-3860-4efb-a41c-e6db62b61b35"><g cursor="cell"><line x1="97" y1="388" x2="310" y2="265" stroke="red" stroke-width="8" opacity="0"></line><line x1="97" y1="388" x2="310" y2="265" stroke="#000000" stroke-width="2" stroke-linecap="round"></line><polygon points="320 259, 294 264, 308 266, 311 274, 320 259" stroke-linejoin="round" fill="#000000" stroke="#000000" stroke-width="1"></polygon></g></g><g id="297aeee2-a82a-424a-8003-b1548220b620-8e58e4be-3860-4efb-a41c-e6db62b61b35"><g cursor="cell"><line x1="33" y1="351" x2="308" y2="263" stroke="red" stroke-width="8" opacity="0"></line><line x1="33" y1="351" x2="308" y2="263" stroke="#000000" stroke-width="2" stroke-linecap="round"></line><polygon points="320 259, 293 260, 305 264, 304 272, 320 259" stroke-linejoin="round" fill="#000000" stroke="#000000" stroke-width="1"></polygon></g></g></g><g pointer-events="auto"><g opacity="1"><g id="297aeee2-a82a-424a-8003-b1548220b620" transform="translate(0 0)"><svg x="-69" y="329" height="80.616" width="106.128" viewBox="0 0 28.08 21.33"><path d="M.265 10.053v4.894l10.596 6.118v-4.894zm10.596 6.118h6.358v4.894h-6.358z" fill="#d2d2d4" stroke="#83838a" stroke-width=".265"></path><path d="m17.219 21.065 10.596-6.118v-4.894l-10.596 6.118z" fill="#b8b8bb" stroke="#83838a" stroke-width=".265"></path><path d="M27.815 10.053v-3.67L17.219.265h-6.358L.264 6.382v3.671l10.597 6.118h6.358z" fill="#ececed" stroke="#83838a" stroke-width=".265"></path><path d="m.265 14.947 10.596 6.118h6.358l10.596-6.118V6.383L17.219.265h-6.358L.264 6.383Z" fill="none" stroke="#000000" stroke-width=".529"></path><g fill="#4286c5"><path class="cls-1" d="m11.211 2.617.666.385-6.87 3.967-.667-.385zm1.872 1.081.666.385-6.871 3.966-.666-.384zm8.12 4.688.666.384-6.871 3.967-.666-.385zm1.871 1.08.666.385-6.87 3.967-.667-.385zM13.48 10.8 9.57 8.543a.796.46 0 0 1 0-.65l3.91-2.258a.796.46 0 0 1 1.126 0l3.91 2.258a.796.46 0 0 1 0 .65l-3.91 2.257a.796.46 0 0 1-1.126 0zm-3.14-2.582 3.703 2.138 3.704-2.138-3.704-2.139z"></path><path class="cls-1" d="m14.958 5.142.666.385-.936.54-.666-.385zm1.249.721.666.385-.936.54-.666-.385zm1.249.721.666.385-.936.54-.666-.385zm1.249.721.666.385-.936.54-.666-.385zm-9.053.9.667.385-.936.54-.667-.385zm1.25.721.665.385-.935.54-.667-.385zm1.248.721.666.385-.936.54-.666-.385zm1.25.721.665.385-.936.54-.666-.385z"></path><path class="cls-1" d="m13.126 5.142.936.54-.666.385-.936-.54zm-1.249.721.936.54-.666.385-.936-.54zm-1.249.721.936.54-.666.385-.936-.54zm-1.249.721.936.54-.666.385-.936-.54zm9.053.9.935.54-.666.385-.936-.54zm-1.25.721.936.54-.666.385-.936-.54zm-1.248.721.936.54-.667.385-.936-.54zm-1.25.721.937.54-.667.385-.935-.54z"></path></g></svg></g></g><g opacity="1"><g id="f338cf9b-602e-4cc0-8416-7fa5a294574f" transform="translate(0 0)"><svg x="-5" y="366" height="80.616" width="106.128" viewBox="0 0 28.08 21.33"><path d="M.265 10.053v4.894l10.596 6.118v-4.894zm10.596 6.118h6.358v4.894h-6.358z" fill="#d2d2d4" stroke="#83838a" stroke-width=".265"></path><path d="m17.219 21.065 10.596-6.118v-4.894l-10.596 6.118z" fill="#b8b8bb" stroke="#83838a" stroke-width=".265"></path><path d="M27.815 10.053v-3.67L17.219.265h-6.358L.264 6.382v3.671l10.597 6.118h6.358z" fill="#ececed" stroke="#83838a" stroke-width=".265"></path><path d="m.265 14.947 10.596 6.118h6.358l10.596-6.118V6.383L17.219.265h-6.358L.264 6.383Z" fill="none" stroke="#000000" stroke-width=".529"></path><g fill="#4286c5"><path class="cls-1" d="m11.211 2.617.666.385-6.87 3.967-.667-.385zm1.872 1.081.666.385-6.871 3.966-.666-.384zm8.12 4.688.666.384-6.871 3.967-.666-.385zm1.871 1.08.666.385-6.87 3.967-.667-.385zM13.48 10.8 9.57 8.543a.796.46 0 0 1 0-.65l3.91-2.258a.796.46 0 0 1 1.126 0l3.91 2.258a.796.46 0 0 1 0 .65l-3.91 2.257a.796.46 0 0 1-1.126 0zm-3.14-2.582 3.703 2.138 3.704-2.138-3.704-2.139z"></path><path class="cls-1" d="m14.958 5.142.666.385-.936.54-.666-.385zm1.249.721.666.385-.936.54-.666-.385zm1.249.721.666.385-.936.54-.666-.385zm1.249.721.666.385-.936.54-.666-.385zm-9.053.9.667.385-.936.54-.667-.385zm1.25.721.665.385-.935.54-.667-.385zm1.248.721.666.385-.936.54-.666-.385zm1.25.721.665.385-.936.54-.666-.385z"></path><path class="cls-1" d="m13.126 5.142.936.54-.666.385-.936-.54zm-1.249.721.936.54-.666.385-.936-.54zm-1.249.721.936.54-.666.385-.936-.54zm-1.249.721.936.54-.666.385-.936-.54zm9.053.9.935.54-.666.385-.936-.54zm-1.25.721.936.54-.666.385-.936-.54zm-1.248.721.936.54-.667.385-.936-.54zm-1.25.721.937.54-.667.385-.935-.54z"></path></g></svg></g></g><g opacity="1"><g id="ab927008-a345-4261-8f9a-46368bf28a04" transform="translate(0 0)"><svg x="-304" y="527" height="94" width="97" fill-rule="evenodd" stroke-miterlimit="1" xml:space="preserve"><path d="M0 18.6v18.6l32.333 18.6h32.334L97 37.2V18.6L64.667 0H32.333L0 18.6Z" fill="#ececed"></path><path d="M64.667 55.8 97 37.2v37.2L64.667 93V55.8Z" fill="#b8b8bb"></path><path d="M32.333 55.8h32.334V93H32.333V55.8ZM0 37.2v37.2L32.333 93V55.8L0 37.2Z" fill="#d2d2d4"></path><path d="M.955 37.877 32.333 55.8h32.334l31.378-17.923M32.333 55.8v36.211M64.667 55.8v36.574" fill="none" stroke="#83838a" stroke-width="1.04"></path><path d="M97 18.6v55.8L64.667 93H32.333L0 74.4V18.6L32.333 0h32.334L97 18.6ZM32.865 1.989 1.989 19.751v53.498l30.876 17.762h31.27l30.876-17.762V19.751L64.135 1.989h-31.27Z" fill="#000000"></path><path d="M69.912 15.583c11.818 6.798 11.818 17.836 0 24.635-11.817 6.798-31.007 6.798-42.824 0-11.818-6.799-11.818-17.837 0-24.635 11.817-6.799 31.007-6.799 42.824 0Z" fill="#4286c5"></path><path d="M49.584 14.774c1.824 1.049 1.824 2.753 0 3.802-1.824 1.05-4.786 1.05-6.61 0-1.824-1.049-1.824-2.753 0-3.802 1.824-1.05 4.786-1.05 6.61 0Zm10.867 6.251c1.825 1.049 1.825 2.753 0 3.803-1.824 1.049-4.786 1.049-6.61 0-1.824-1.05-1.824-2.754 0-3.803s4.786-1.049 6.61 0Zm10.868 6.251c1.824 1.05 1.824 2.754 0 3.803-1.825 1.049-4.787 1.049-6.611 0-1.824-1.049-1.824-2.753 0-3.803 1.824-1.049 4.786-1.049 6.611 0Zm-32.822 6.378c1.824 1.05 1.824 2.754 0 3.803-1.825 1.05-4.787 1.05-6.611 0-1.824-1.049-1.824-2.753 0-3.803 1.824-1.049 4.786-1.049 6.611 0Z" fill="#ffffff"></path><path d="M47.458 15.878c.453.26.393.717-.133 1.02-.526.303-1.32.337-1.773.076-.452-.26-.392-.717.133-1.019.526-.303 1.321-.337 1.773-.077Z" fill="#ffffff"></path><path d="M48.111 15.621c1.012.582 1.012 1.526 0 2.108-1.011.582-2.653.582-3.664 0-1.012-.582-1.012-1.526 0-2.108 1.011-.582 2.653-.582 3.664 0Zm10.867 6.251c1.012.582 1.012 1.527 0 2.108-1.011.582-2.653.582-3.664 0-1.012-.581-1.012-1.526 0-2.108 1.011-.581 2.653-.581 3.664 0Zm10.868 6.252c1.011.581 1.011 1.526 0 2.108-1.012.582-2.654.582-3.665 0-1.011-.582-1.011-1.527 0-2.108 1.011-.582 2.653-.582 3.665 0Z" fill="#4286c5"></path><path d="M37.024 34.502c1.011.582 1.011 1.526 0 2.108-1.012.582-2.654.582-3.665 0-1.011-.582-1.011-1.526 0-2.108 1.011-.582 2.653-.582 3.665 0Zm15.277-9.33L37.719 33.56l.482.834 14.584-8.388-.484-.834Z" fill="#ffffff"></path><path d="m46.993 26.089 6.654-1.146-4.324 5.168c.189-1.691-.757-3.313-2.33-4.022Z" fill="#ffffff" stroke="#ffffff" stroke-width=".36"></path><path d="m43.488 19.937-6.057 13.797.886.387 6.056-13.798-.885-.386Z" fill="#ffffff"></path><path d="m39.76 23.812 4.676-4.854-.405 6.716c-.855-1.474-2.582-2.221-4.271-1.862Z" fill="#ffffff" stroke="#ffffff" stroke-width=".36"></path><path d="m61.953 30.061-23.985 3.483.14.955 23.985-3.486-.14-.952Z" fill="#ffffff"></path><path d="m56.68 28.957 6.608 1.387-5.936 3.209c.804-1.503.526-3.358-.672-4.596Z" fill="#ffffff" stroke="#ffffff" stroke-width=".36"></path><path d="m37.96 33.977 13.12-7.547m-13.207 7.497 5.792-13.134m-5.628 13.229 22.478-3.281" fill="#ffffff" stroke="#ffffff" stroke-width="1.93"></path></svg></g></g><g opacity="1"><g id="153fe642-c09c-4b3d-be24-a59023169c1e" transform="translate(0 0)"><svg x="-505" y="641" height="93.28" width="81" viewBox="0 0 21.431 24.68"><path d="m.267 5.103 12.538 7.237 5.224-.603 3.134-9.048-4.18-2.412-15.67 1.81z" fill="#ececed" fill-rule="evenodd"></path><path d="M.267 5.103v12.063l12.538 7.238V12.34zm12.538 7.237 5.224-.603v12.064l-5.224.603z" fill="#d2d2d4" fill-rule="evenodd"></path><path d="m18.029 11.737 3.134-9.048v12.064l-3.134 9.048z" fill="#b8b8bb" fill-rule="evenodd"></path><path d="m.267 5.103 12.538 7.237 5.224-.603 3.134-9.048m-3.134 9.048v12.064M12.805 12.34v12.064" fill="none" stroke="#83838a" stroke-width=".265"></path><path d="m.267 17.166 12.538 7.238 5.224-.603 3.134-9.048V2.689L16.983.277l-15.67 1.81L.268 5.102z" fill="none" stroke="#000000" stroke-width=".529"></path><path d="M16.852 3.319c-.637-.01-1.269-.156-1.755-.437-.487-.28-.739-.645-.757-1.013l-3.498.035c.111.43-.12.884-.694 1.215-.363.21-.812.34-1.281.392-.625.067-1.226.241-1.71.52-1.272.736-1.277 1.926-.013 2.664.734.423 1.146.957 1.248 1.509.956.059 1.88.297 2.613.72 1.279.73 3.34.727 4.613-.008.484-.28.785-.626.903-.987.088-.27.314-.53.678-.74.573-.33 1.359-.464 2.104-.4l.06-2.02c-.636-.01-1.268-.156-1.754-.437-.487-.28-.739-.645-.757-1.013z" fill="none"></path><path d="M17.277 4.302c.467.27 1.056.427 1.664.471l-.05 1.693c-.73-.014-1.467.14-2.023.462-.404.234-.655.522-.754.824-.107.33-.382.647-.823.902-1.161.672-3.041.674-4.208.007-.722-.417-1.618-.665-2.554-.749-.145-.541-.574-1.06-1.296-1.478-1.152-.675-1.147-1.762.014-2.433.44-.255.988-.414 1.559-.476.521-.057 1.02-.203 1.424-.436.556-.322.823-.748.8-1.17l2.926-.03c.076.352.348.693.815.963.473.274 1.07.432 1.687.474.073.356.346.702.819.976z" fill="#4286c5" fill-rule="evenodd"></path><g fill="#ffffff" font-family="sans-serif" font-size="3.217" stroke-width=".268" style="line-height: 0%;"><path d="M177.61 45.984h2.004v.43h-1.537v.925q.112-.038.223-.056.11-.02.222-.02.632 0 1.001.346.369.346.369.938 0 .609-.38.948-.378.336-1.068.336-.238 0-.485-.04-.246-.041-.508-.122v-.513q.227.124.47.184.242.061.513.061.437 0 .692-.23.255-.23.255-.624t-.255-.624q-.255-.23-.692-.23-.205 0-.41.045-.202.046-.414.142zm4.837 1.739q.367.078.571.326.208.248.208.612 0 .558-.385.864-.384.306-1.091.306-.238 0-.49-.048-.25-.046-.519-.14v-.492q.212.124.465.187t.528.063q.48 0 .73-.19.254-.189.254-.55 0-.334-.235-.521-.233-.19-.65-.19h-.44v-.42h.46q.377 0 .576-.148.2-.152.2-.435 0-.29-.207-.445-.205-.157-.589-.157-.21 0-.45.046-.24.045-.528.142v-.455q.29-.081.543-.122.256-.04.48-.04.582 0 .92.265.34.263.34.713 0 .313-.18.53-.18.216-.51.299z" font-family="Interstate" font-size="5.176" transform="scale(1.31486 .76054) rotate(45 142.927 -178.732)" style="line-height: 1.25;"></path></g></svg></g></g><g opacity="1"><g id="9559d24b-a235-4a1f-921d-4a14073b2341" transform="translate(0 0)"><svg x="-616" y="700" height="95.068" width="63" viewBox="0 0 16.669 25.153"><path d="M16.668 22.903q0 1.64-.864 2.09-.865.452-2.296-.375L3.161 18.645q-1.432-.828-2.296-2.276Q.001 14.92 0 13.279q0-.724.042-1.39.042-.667.166-1.394.124-.728.313-1.303.19-.574.51-1.038.32-.464.733-.684.415-.219 1.013-.146.598.073 1.32.489.106.061.497.58.39.52.881 1.166.492.645 1.28 1.394.787.749 1.58 1.206.793.458 1.58.619.788.16 1.279.082.491-.078.882-.147.39-.068.497-.007.722.417 1.32 1.036.598.618 1.012 1.315.414.697.734 1.53.32.834.509 1.627.19.793.314 1.665.124.871.165 1.585.042.714.042 1.439zM12.88 8.509q0 2.173-1.331 2.942-1.332.77-3.214-.317T5.121 7.74Q3.789 5.434 3.789 3.26q0-2.173 1.332-2.942 1.332-.769 3.214.318 1.882 1.086 3.214 3.393 1.331 2.307 1.331 4.48z" fill="#000" stroke="#000000" stroke-width=".268"></path></svg></g></g></g><g pointer-events="auto"></g><g pointer-events="auto"><g opacity="1"><g id="8e58e4be-3860-4efb-a41c-e6db62b61b35" transform="translate(0 0)"><svg x="352" y="241" overflow="visible"><g transform="scale(1.4131949617798671) matrix(0.707 0.409 -0.707 0.409 0 0)"><circle cx="0" cy="0" fill="transparent" r="39"></circle><svg width="64" height="64" x="-32" y="-32" style="fill: rgb(255, 255, 255);"><svg width="64" height="64" viewBox="0 0 64 64" xmlns="http://www.w3.org/2000/svg"><defs><linearGradient x1="0%" y1="100%" x2="100%" y2="0%" id="DynamoDB_svg__a"><stop stop-color="#2E27AD" offset="0%"></stop><stop stop-color="#527FFF" offset="100%"></stop></linearGradient></defs><g fill="none" fill-rule="evenodd"><g fill="url(#DynamoDB_svg__a)"><path d="M0 0h64v64H0z"></path></g><path d="M46.586 25.25H43a.998.998 0 0 1-.822-.435 1.018 1.018 0 0 1-.114-.931l2.493-6.722h-8.913l-4.091 9.098H36c.32 0 .623.156.812.42.187.264.239.602.136.91l-3.66 11.101L46.586 25.25Zm3.12-.297L31.709 43.15a.992.992 0 0 1-1.232.146 1.014 1.014 0 0 1-.423-1.18l4.56-13.833H30a1 1 0 0 1-.841-.463 1.024 1.024 0 0 1-.07-.966l5-11.12a.998.998 0 0 1 .91-.593h11c.329 0 .636.163.823.435.187.273.23.62.115.931l-2.494 6.721H49a1 1 0 0 1 .924.624c.155.378.069.813-.217 1.102ZM41.002 44.22c-2.71 1.886-7.687 2.882-12.468 2.882-4.816 0-9.837-1.01-12.533-2.924l.001 3.816c0 1.664 4.768 3.984 12.532 3.984 7.495 0 12.468-2.702 12.468-4.49V44.22Zm2.064-3.27c0 .187-.032.367-.064.546v5.993C43 51.079 36.51 54 28.533 54c-6.903 0-13.871-1.89-14.473-5.5h-.059L14 43.445V16.151h.001c0-3.996 7.487-6.151 14.532-6.151 3.94 0 7.73.64 10.397 1.756l-.766 1.868c-2.432-1.019-5.943-1.602-9.631-1.602-7.764 0-12.532 2.405-12.532 4.13 0 1.724 4.768 4.129 12.532 4.129.195 0 .399 0 .596-.007l.078 2.02c-.225.009-.45.009-.674.009-4.817 0-9.837-1.01-12.533-2.924v4.358h.001v.017c.005.53.489 1.143 1.364 1.72 1.982 1.288 5.55 2.168 9.539 2.351l-.091 2.02c-4.126-.19-7.75-1.069-10.086-2.416-.31.298-.726 1.056-.726 1.467 0 1.724 4.768 4.129 12.532 4.129.738 0 1.465-.025 2.162-.075l.14 2.017c-.743.054-1.518.08-2.302.08-4.817 0-9.837-1.009-12.533-2.924v3.67h.001c.005.547.489 1.16 1.364 1.737 2.268 1.474 6.549 2.393 11.168 2.393h.33v2.022h-.33c-4.778 0-9.86-1.008-12.532-2.543-.322.298 0 1.01 0 1.548 0 1.725 4.768 4.13 12.532 4.13 7.765 0 12.532-2.405 12.532-4.13 0-.61-.6-1.174-1.092-1.538-.41.247-.86.483-1.372.7l-.768-1.868c.53-.223.99-.463 1.364-.711 1.1-.734 1.804-1.779 1.804-2.175h2c0 .94-.621 1.947-1.417 2.775 1.192 1.04 1.48 2.078 1.48 2.817ZM17.142 48.39c.791.408 1.716.772 2.752 1.08l.564-1.94a13.863 13.863 0 0 1-2.406-.94l-.91 1.8Zm2.752-11.05.564-1.94c-.916-.272-1.726-.589-2.406-.94l-.91 1.799c.791.41 1.716.772 2.752 1.08Zm-2.752-13.21.91-1.801c.68.352 1.49.668 2.406.94l-.564 1.94a15.945 15.945 0 0 1-2.752-1.08Z" fill="#FFF"></path></g></svg></svg></g></svg></g></g></g><g pointer-events="auto"><g opacity="1"><g id="9ab6f4ea-ead1-4598-b84d-efb5a397579e" transform="translate(0 0)"><svg x="112" y="472" overflow="visible"><text stroke="#ffffff" stroke-width="4" font-family="Open Sans" y="36.5" font-size="25pt" fill="#000000" font-weight="bold" transform="matrix(0.707 0.409 -0.707 0.409 0 0)" xml:space="preserve"><tspan x="8" dy="0">API Replicas</tspan></text><text font-family="Open Sans" y="36.5" font-size="25pt" fill="#000000" font-weight="bold" transform="matrix(0.707 0.409 -0.707 0.409 0 0)" xml:space="preserve"><tspan x="8" dy="0">API Replicas</tspan></text></svg></g></g><g opacity="1"><g id="0d9dbac0-8e8c-48a3-a695-993032c87018" transform="translate(0 0)"><svg x="-192" y="611" overflow="visible"><text stroke="#ffffff" stroke-width="4" font-family="Open Sans" y="36.5" font-size="25pt" fill="#000000" font-weight="bold" transform="matrix(0.707 0.409 -0.707 0.409 0 0)" xml:space="preserve"><tspan x="8" dy="0">Load Balancer</tspan></text><text font-family="Open Sans" y="36.5" font-size="25pt" fill="#000000" font-weight="bold" transform="matrix(0.707 0.409 -0.707 0.409 0 0)" xml:space="preserve"><tspan x="8" dy="0">Load Balancer</tspan></text></svg></g></g><g opacity="1"><g id="98c93073-32a5-48bb-b49d-9ecd20915e64" transform="translate(0 0)"><svg x="-416" y="722" overflow="visible"><text stroke="#ffffff" stroke-width="4" font-family="Open Sans" y="36.5" font-size="25pt" fill="#000000" font-weight="bold" transform="matrix(0.707 0.409 -0.707 0.409 0 0)" xml:space="preserve"><tspan x="8" dy="0">DNS</tspan></text><text font-family="Open Sans" y="36.5" font-size="25pt" fill="#000000" font-weight="bold" transform="matrix(0.707 0.409 -0.707 0.409 0 0)" xml:space="preserve"><tspan x="8" dy="0">DNS</tspan></text></svg></g></g></g><g pointer-events="auto"><g></g><g></g><g></g><g></g><g></g><g></g><g></g><g></g><g></g><g></g></g></g></svg>