<?xml version="1.0" standalone="no"?>
<!DOCTYPE svg PUBLIC "-//W3C//DTD SVG 1.1//EN"
  "http://www.w3.org/Graphics/SVG/1.1/DTD/svg11.dtd">
<svg version="1.1" xmlns="http://www.w3.org/2000/svg" xmlns:xlink="http://www.w3.org/1999/xlink" width="1920" height="1080" viewBox="-1040.888888888889 -32 1889.7777777777778 1063" id="ccdiagram"><filter id="grayscale"><feColorMatrix type="matrix" values="0.3333 0.3333 0.3333 0 0 0.3333 0.3333 0.3333 0 0 0.3333 0.3333 0.3333 0 0 0 0 0 1 0"></feColorMatrix></filter><defs><style type="text/css">@import url('https://fonts.googleapis.com/css?family=Open+Sans:400,700|Inconsolata:400');</style></defs><g><rect x="-1040.888888888889" y="-32" width="1889.7777777777778" height="1063" fill="none" id="interactionLayer"></rect><g style="pointer-events: none;"><g><pattern id="gridPatternMinor" x="0" y="37" width="128" height="74" patternUnits="userSpaceOnUse"><path d="M 0 0 L 128 74" stroke="#eeeeee" stroke-width="1"></path><path d="M 128 0 L 0 74" stroke="#eeeeee" stroke-width="1"></path></pattern><polygon points="0 0, 768 444, -192 999, -960 555" fill="url(#gridPatternMinor)"></polygon></g><polygon points="-960 555, -960 565, -192 1009, -192 999" stroke="#54626f" fill="#f9f9f9" stroke-linejoin="round" stroke-width="1"></polygon><polygon points="-192 1009, 768 454, 768 444, -192 999" stroke="#54626f" fill="#e2e2e2" stroke-linejoin="round" stroke-width="1"></polygon></g><g pointer-events="auto"></g><g style="pointer-events: none;"><g><pattern id="gridPatternMajor" x="0" y="37" width="128" height="74" patternUnits="userSpaceOnUse"><path d="M 64 0 L 128 37 64 74 0 37 z" stroke="#54626f" stroke-width="1" fill="none"></path></pattern><polygon points="0 0, 768 444, -192 999, -960 555" fill="url(#gridPatternMajor)"></polygon></g></g><g pointer-events="auto"><g opacity="1"><g id="0254537e-ed28-4e05-9595-0b1892f3317f"><g><polygon points="-16 213, 368 435, 48 620, -336 398" fill="#ececed"></polygon><svg x="-46" y="106" overflow="visible"><g fill="#4286c5" fill-opacity="1" stroke="none" transform="scale(1.25) matrix(0.707 0.409 -0.707 0.409 0 0)"><path stroke="none" d="M144 93.924l-14.834 8.565v19.577l16.954 9.789 14.835-8.565-6.358-3.67-8.477 4.893-10.597-6.117V106.16l8.478-4.894z"></path><path stroke="none" d="M148.24 93.924v7.342l8.476 4.894v9.788l6.358 3.671v-17.13z"></path></g></svg><polygon points="-336 410, 48 632, 48 620, -336 398" fill="#d2d2d4" stroke="#83838a"></polygon><polygon points="48 632, 368 447, 368 435, 48 620" fill="#b8b8bb" stroke="#83838a"></polygon><polygon points="-336 416, 48 638, 48 632, -336 410" fill="#326ca2" stroke="#326ca2"></polygon><polygon points="48 638, 368 453, 368 447, 48 632" fill="#26527b" stroke="#26527b"></polygon><polygon points="-16 213, -336 398, -336 416, 48 638, 368 453, 368 435" fill="none" stroke="#000000" stroke-width="2"></polygon><clipPath id="clip-0254537e-ed28-4e05-9595-0b1892f3317f"><rect x="248.7375" y="271.34999999999997" width="533.6550000000001" height="452.25"></rect></clipPath><text font-family="Open Sans" font-size="32pt" fill="#000000" font-weight="bold" x="307.53000000000003" y="316.575" stroke="#ffffff" stroke-width="4" transform="matrix(0.707 0.409 -0.707 0.409 0 0)" clip-path="url(#clip-0254537e-ed28-4e05-9595-0b1892f3317f)"><tspan>ECS Cluster</tspan></text><text font-family="Open Sans" font-size="32pt" fill="#000000" font-weight="bold" x="307.53000000000003" y="316.575" transform="matrix(0.707 0.409 -0.707 0.409 0 0)" clip-path="url(#clip-0254537e-ed28-4e05-9595-0b1892f3317f)"><tspan>ECS Cluster</tspan></text></g></g></g></g><g pointer-events="auto"></g><g></g><g pointer-events="auto"><g opacity="1"><g id="c136c105-8e27-4af1-8533-d42446f4650b"><g><g><polygon points="-129 852, 560 453, -16 120, -705 519" stroke="#03a9f4" stroke-width="8" fill="none"></polygon></g><g><polygon points="-16 120, -48 102, -272 231, -272 268" stroke="#03a9f4" stroke-width="8" fill="#03a9f4"></polygon><text font-family="Inconsolata" font-size="20pt" font-weight="bold" fill="#ffffff" transform="translate(-56 133) matrix(0.707 -0.409 0.707 0.409 0 0)" text-anchor="end">VPC</text><g transform="translate(-48 106) matrix(0.707 0.409 -0.707 0.409 0 0)"><svg width="34" height="32" style="fill: rgb(255, 255, 255);"><svg xmlns="http://www.w3.org/2000/svg" width="34" height="32" viewBox="0 0 34 32"><path d="M34.286 20.571a6.858 6.858 0 0 1-6.857 6.857H8c-4.411 0-8-3.589-8-8a7.993 7.993 0 0 1 4.607-7.232c-.018-.25-.036-.518-.036-.768a9.137 9.137 0 0 1 9.143-9.143c3.821 0 7.089 2.339 8.464 5.679a4.439 4.439 0 0 1 2.964-1.107 4.58 4.58 0 0 1 4.571 4.571 4.49 4.49 0 0 1-.732 2.464c3.036.714 5.304 3.429 5.304 6.679z"></path></svg></svg></g></g></g></g></g></g><g></g><g pointer-events="auto"></g><g pointer-events="auto"><g opacity="1"><g id="8aa5fd4f-4fde-4d31-b7b4-69322ea3ab5d"><g><polygon points="-16 287, 240 435, 48 546, -208 398" fill="#000000" opacity="0.5"></polygon><polygon points="-16 268, 240 416, 48 527, -208 379" fill="#fff"></polygon><polygon points="-208 389, 48 537, 48 527, -208 379" fill="#326ca2" stroke="#999"></polygon><polygon points="48 537, 240 426, 240 416, 48 527" fill="#26527b" stroke="#999"></polygon><polygon points="-16 268, -208 379, -208 389, 48 537, 240 426, 240 416" fill="none" stroke="#000000" stroke-width="2"></polygon><clipPath id="clip-8aa5fd4f-4fde-4d31-b7b4-69322ea3ab5d"><rect x="316.575" y="339.18750000000006" width="352.755" height="271.35"></rect></clipPath><text font-family="Open Sans" font-size="25pt" fill="#000000" font-weight="bold" x="325.62" y="375.36750000000006" stroke="#ffffff" stroke-width="4" transform="matrix(0.707 0.409 -0.707 0.409 0 0)" clip-path="url(#clip-8aa5fd4f-4fde-4d31-b7b4-69322ea3ab5d)"><tspan>ECS Service</tspan></text><text font-family="Open Sans" font-size="25pt" fill="#000000" font-weight="bold" x="325.62" y="375.36750000000006" transform="matrix(0.707 0.409 -0.707 0.409 0 0)" clip-path="url(#clip-8aa5fd4f-4fde-4d31-b7b4-69322ea3ab5d)"><tspan>ECS Service</tspan></text></g></g></g></g><g pointer-events="none"></g><g pointer-events="auto"><g id="9559d24b-a235-4a1f-921d-4a14073b2341-153fe642-c09c-4b3d-be24-a59023169c1e"><g cursor="cell"><line x1="-521" y1="772" x2="-483" y2="794" stroke="red" stroke-width="8" opacity="0"></line><line x1="-521" y1="772" x2="-483" y2="794" stroke="#000000" stroke-width="2" stroke-linecap="round"></line><polygon points="-473 800, -482 785, -485 792, -498 794, -473 800" stroke-linejoin="round" fill="#000000" stroke="#000000" stroke-width="1"></polygon></g></g><g id="9559d24b-a235-4a1f-921d-4a14073b2341-5c7ca9dc-cc98-4c41-827f-693bd11a7a7c"><g cursor="cell"><line x1="-524" y1="747" x2="-458" y2="709" stroke="red" stroke-width="8" opacity="0"></line><line x1="-524" y1="747" x2="-458" y2="709" stroke="#000000" stroke-width="2" stroke-linecap="round"></line></g></g><g id="297aeee2-a82a-424a-8003-b1548220b620-e8a21bd1-1659-40cd-af28-927f3e494d42"><g cursor="cell"><line x1="33" y1="351" x2="339" y2="280" stroke="red" stroke-width="8" opacity="0"></line><line x1="33" y1="351" x2="339" y2="280" stroke="#000000" stroke-width="2" stroke-linecap="round"></line><polygon points="352 278, 325 277, 336 281, 333 289, 352 278" stroke-linejoin="round" fill="#000000" stroke="#000000" stroke-width="1"></polygon></g></g><g id="5c7ca9dc-cc98-4c41-827f-693bd11a7a7c-ab927008-a345-4261-8f9a-46368bf28a04"><g cursor="cell"><line x1="-438" y1="697" x2="-250" y2="588" stroke="red" stroke-width="8" opacity="0"></line><line x1="-438" y1="697" x2="-250" y2="588" stroke="#000000" stroke-width="2" stroke-linecap="round"></line><polygon points="-240 583, -266 588, -252 590, -249 598, -240 583" stroke-linejoin="round" fill="#000000" stroke="#000000" stroke-width="1"></polygon></g></g><g id="ab927008-a345-4261-8f9a-46368bf28a04-f338cf9b-602e-4cc0-8416-7fa5a294574f"><g cursor="cell"><line x1="-159" y1="536" x2="6" y2="440" stroke="red" stroke-width="8" opacity="0"></line><line x1="-159" y1="536" x2="6" y2="440" stroke="#000000" stroke-width="2" stroke-linecap="round"></line><polygon points="16 435, -10 440, 4 442, 7 450, 16 435" stroke-linejoin="round" fill="#000000" stroke="#000000" stroke-width="1"></polygon></g></g><g id="297aeee2-a82a-424a-8003-b1548220b620-8e58e4be-3860-4efb-a41c-e6db62b61b35"><g cursor="cell"><line x1="33" y1="351" x2="216" y2="210" stroke="red" stroke-width="8" opacity="0"></line><line x1="33" y1="351" x2="216" y2="210" stroke="#000000" stroke-width="2" stroke-linecap="round"></line><polygon points="224 204, 200 211, 213 212, 218 219, 224 204" stroke-linejoin="round" fill="#000000" stroke="#000000" stroke-width="1"></polygon></g></g><g id="e8a21bd1-1659-40cd-af28-927f3e494d42-50a2d0cd-22d7-45f5-8a61-8d7937c787be"><g cursor="cell"><line x1="416" y1="278" x2="488" y2="319" stroke="red" stroke-width="8" opacity="0"></line><line x1="416" y1="278" x2="488" y2="319" stroke="#000000" stroke-width="2" stroke-linecap="round"></line></g></g><g id="f338cf9b-602e-4cc0-8416-7fa5a294574f-e8a21bd1-1659-40cd-af28-927f3e494d42"><g cursor="cell"><line x1="97" y1="388" x2="341" y2="282" stroke="red" stroke-width="8" opacity="0"></line><line x1="97" y1="388" x2="341" y2="282" stroke="#000000" stroke-width="2" stroke-linecap="round"></line><polygon points="352 278, 325 281, 338 284, 339 291, 352 278" stroke-linejoin="round" fill="#000000" stroke="#000000" stroke-width="1"></polygon></g></g><g id="ab927008-a345-4261-8f9a-46368bf28a04-297aeee2-a82a-424a-8003-b1548220b620"><g cursor="cell"><line x1="-159" y1="536" x2="-54" y2="405" stroke="red" stroke-width="8" opacity="0"></line><line x1="-159" y1="536" x2="-54" y2="405" stroke="#000000" stroke-width="2" stroke-linecap="round"></line><polygon points="-48 398, -69 408, -55 407, -48 413, -48 398" stroke-linejoin="round" fill="#000000" stroke="#000000" stroke-width="1"></polygon></g></g><g id="f338cf9b-602e-4cc0-8416-7fa5a294574f-8e58e4be-3860-4efb-a41c-e6db62b61b35"><g cursor="cell"><line x1="97" y1="388" x2="219" y2="211" stroke="red" stroke-width="8" opacity="0"></line><line x1="97" y1="388" x2="219" y2="211" stroke="#000000" stroke-width="2" stroke-linecap="round"></line><polygon points="224 204, 204 214, 217 213, 226 219, 224 204" stroke-linejoin="round" fill="#000000" stroke="#000000" stroke-width="1"></polygon></g></g></g><g pointer-events="auto"><g opacity="1"><g id="297aeee2-a82a-424a-8003-b1548220b620" transform="translate(0 0)"><svg x="-69" y="329" height="80.616" width="106.128" viewBox="0 0 28.08 21.33"><path d="M.265 10.053v4.894l10.596 6.118v-4.894zm10.596 6.118h6.358v4.894h-6.358z" fill="#d2d2d4" stroke="#83838a" stroke-width=".265"></path><path d="m17.219 21.065 10.596-6.118v-4.894l-10.596 6.118z" fill="#b8b8bb" stroke="#83838a" stroke-width=".265"></path><path d="M27.815 10.053v-3.67L17.219.265h-6.358L.264 6.382v3.671l10.597 6.118h6.358z" fill="#ececed" stroke="#83838a" stroke-width=".265"></path><path d="m.265 14.947 10.596 6.118h6.358l10.596-6.118V6.383L17.219.265h-6.358L.264 6.383Z" fill="none" stroke="#000000" stroke-width=".529"></path><g fill="#4286c5"><path class="cls-1" d="m11.211 2.617.666.385-6.87 3.967-.667-.385zm1.872 1.081.666.385-6.871 3.966-.666-.384zm8.12 4.688.666.384-6.871 3.967-.666-.385zm1.871 1.08.666.385-6.87 3.967-.667-.385zM13.48 10.8 9.57 8.543a.796.46 0 0 1 0-.65l3.91-2.258a.796.46 0 0 1 1.126 0l3.91 2.258a.796.46 0 0 1 0 .65l-3.91 2.257a.796.46 0 0 1-1.126 0zm-3.14-2.582 3.703 2.138 3.704-2.138-3.704-2.139z"></path><path class="cls-1" d="m14.958 5.142.666.385-.936.54-.666-.385zm1.249.721.666.385-.936.54-.666-.385zm1.249.721.666.385-.936.54-.666-.385zm1.249.721.666.385-.936.54-.666-.385zm-9.053.9.667.385-.936.54-.667-.385zm1.25.721.665.385-.935.54-.667-.385zm1.248.721.666.385-.936.54-.666-.385zm1.25.721.665.385-.936.54-.666-.385z"></path><path class="cls-1" d="m13.126 5.142.936.54-.666.385-.936-.54zm-1.249.721.936.54-.666.385-.936-.54zm-1.249.721.936.54-.666.385-.936-.54zm-1.249.721.936.54-.666.385-.936-.54zm9.053.9.935.54-.666.385-.936-.54zm-1.25.721.936.54-.666.385-.936-.54zm-1.248.721.936.54-.667.385-.936-.54zm-1.25.721.937.54-.667.385-.935-.54z"></path></g></svg></g></g><g opacity="1"><g id="f338cf9b-602e-4cc0-8416-7fa5a294574f" transform="translate(0 0)"><svg x="-5" y="366" height="80.616" width="106.128" viewBox="0 0 28.08 21.33"><path d="M.265 10.053v4.894l10.596 6.118v-4.894zm10.596 6.118h6.358v4.894h-6.358z" fill="#d2d2d4" stroke="#83838a" stroke-width=".265"></path><path d="m17.219 21.065 10.596-6.118v-4.894l-10.596 6.118z" fill="#b8b8bb" stroke="#83838a" stroke-width=".265"></path><path d="M27.815 10.053v-3.67L17.219.265h-6.358L.264 6.382v3.671l10.597 6.118h6.358z" fill="#ececed" stroke="#83838a" stroke-width=".265"></path><path d="m.265 14.947 10.596 6.118h6.358l10.596-6.118V6.383L17.219.265h-6.358L.264 6.383Z" fill="none" stroke="#000000" stroke-width=".529"></path><g fill="#4286c5"><path class="cls-1" d="m11.211 2.617.666.385-6.87 3.967-.667-.385zm1.872 1.081.666.385-6.871 3.966-.666-.384zm8.12 4.688.666.384-6.871 3.967-.666-.385zm1.871 1.08.666.385-6.87 3.967-.667-.385zM13.48 10.8 9.57 8.543a.796.46 0 0 1 0-.65l3.91-2.258a.796.46 0 0 1 1.126 0l3.91 2.258a.796.46 0 0 1 0 .65l-3.91 2.257a.796.46 0 0 1-1.126 0zm-3.14-2.582 3.703 2.138 3.704-2.138-3.704-2.139z"></path><path class="cls-1" d="m14.958 5.142.666.385-.936.54-.666-.385zm1.249.721.666.385-.936.54-.666-.385zm1.249.721.666.385-.936.54-.666-.385zm1.249.721.666.385-.936.54-.666-.385zm-9.053.9.667.385-.936.54-.667-.385zm1.25.721.665.385-.935.54-.667-.385zm1.248.721.666.385-.936.54-.666-.385zm1.25.721.665.385-.936.54-.666-.385z"></path><path class="cls-1" d="m13.126 5.142.936.54-.666.385-.936-.54zm-1.249.721.936.54-.666.385-.936-.54zm-1.249.721.936.54-.666.385-.936-.54zm-1.249.721.936.54-.666.385-.936-.54zm9.053.9.935.54-.666.385-.936-.54zm-1.25.721.936.54-.666.385-.936-.54zm-1.248.721.936.54-.667.385-.936-.54zm-1.25.721.937.54-.667.385-.935-.54z"></path></g></svg></g></g><g opacity="1"><g id="ab927008-a345-4261-8f9a-46368bf28a04" transform="translate(0 0)"><svg x="-256" y="499" height="94" width="97" fill-rule="evenodd" stroke-miterlimit="1" xml:space="preserve"><path d="M0 18.6v18.6l32.333 18.6h32.334L97 37.2V18.6L64.667 0H32.333L0 18.6Z" fill="#ececed"></path><path d="M64.667 55.8 97 37.2v37.2L64.667 93V55.8Z" fill="#b8b8bb"></path><path d="M32.333 55.8h32.334V93H32.333V55.8ZM0 37.2v37.2L32.333 93V55.8L0 37.2Z" fill="#d2d2d4"></path><path d="M.955 37.877 32.333 55.8h32.334l31.378-17.923M32.333 55.8v36.211M64.667 55.8v36.574" fill="none" stroke="#83838a" stroke-width="1.04"></path><path d="M97 18.6v55.8L64.667 93H32.333L0 74.4V18.6L32.333 0h32.334L97 18.6ZM32.865 1.989 1.989 19.751v53.498l30.876 17.762h31.27l30.876-17.762V19.751L64.135 1.989h-31.27Z" fill="#000000"></path><path d="M69.912 15.583c11.818 6.798 11.818 17.836 0 24.635-11.817 6.798-31.007 6.798-42.824 0-11.818-6.799-11.818-17.837 0-24.635 11.817-6.799 31.007-6.799 42.824 0Z" fill="#4286c5"></path><path d="M49.584 14.774c1.824 1.049 1.824 2.753 0 3.802-1.824 1.05-4.786 1.05-6.61 0-1.824-1.049-1.824-2.753 0-3.802 1.824-1.05 4.786-1.05 6.61 0Zm10.867 6.251c1.825 1.049 1.825 2.753 0 3.803-1.824 1.049-4.786 1.049-6.61 0-1.824-1.05-1.824-2.754 0-3.803s4.786-1.049 6.61 0Zm10.868 6.251c1.824 1.05 1.824 2.754 0 3.803-1.825 1.049-4.787 1.049-6.611 0-1.824-1.049-1.824-2.753 0-3.803 1.824-1.049 4.786-1.049 6.611 0Zm-32.822 6.378c1.824 1.05 1.824 2.754 0 3.803-1.825 1.05-4.787 1.05-6.611 0-1.824-1.049-1.824-2.753 0-3.803 1.824-1.049 4.786-1.049 6.611 0Z" fill="#ffffff"></path><path d="M47.458 15.878c.453.26.393.717-.133 1.02-.526.303-1.32.337-1.773.076-.452-.26-.392-.717.133-1.019.526-.303 1.321-.337 1.773-.077Z" fill="#ffffff"></path><path d="M48.111 15.621c1.012.582 1.012 1.526 0 2.108-1.011.582-2.653.582-3.664 0-1.012-.582-1.012-1.526 0-2.108 1.011-.582 2.653-.582 3.664 0Zm10.867 6.251c1.012.582 1.012 1.527 0 2.108-1.011.582-2.653.582-3.664 0-1.012-.581-1.012-1.526 0-2.108 1.011-.581 2.653-.581 3.664 0Zm10.868 6.252c1.011.581 1.011 1.526 0 2.108-1.012.582-2.654.582-3.665 0-1.011-.582-1.011-1.527 0-2.108 1.011-.582 2.653-.582 3.665 0Z" fill="#4286c5"></path><path d="M37.024 34.502c1.011.582 1.011 1.526 0 2.108-1.012.582-2.654.582-3.665 0-1.011-.582-1.011-1.526 0-2.108 1.011-.582 2.653-.582 3.665 0Zm15.277-9.33L37.719 33.56l.482.834 14.584-8.388-.484-.834Z" fill="#ffffff"></path><path d="m46.993 26.089 6.654-1.146-4.324 5.168c.189-1.691-.757-3.313-2.33-4.022Z" fill="#ffffff" stroke="#ffffff" stroke-width=".36"></path><path d="m43.488 19.937-6.057 13.797.886.387 6.056-13.798-.885-.386Z" fill="#ffffff"></path><path d="m39.76 23.812 4.676-4.854-.405 6.716c-.855-1.474-2.582-2.221-4.271-1.862Z" fill="#ffffff" stroke="#ffffff" stroke-width=".36"></path><path d="m61.953 30.061-23.985 3.483.14.955 23.985-3.486-.14-.952Z" fill="#ffffff"></path><path d="m56.68 28.957 6.608 1.387-5.936 3.209c.804-1.503.526-3.358-.672-4.596Z" fill="#ffffff" stroke="#ffffff" stroke-width=".36"></path><path d="m37.96 33.977 13.12-7.547m-13.207 7.497 5.792-13.134m-5.628 13.229 22.478-3.281" fill="#ffffff" stroke="#ffffff" stroke-width="1.93"></path></svg></g></g><g opacity="1"><g id="9ae176fc-5987-4d0e-8303-618afbfb459f" transform="translate(0 0)"><svg x="-366" y="548" height="108.05" width="123" viewBox="0 0 32.544 28.588"><path d="M10.115 6.02v14.218l7.873-4.317V1.475z" fill="#b8b8bb" fill-rule="evenodd" stroke="#83838a" stroke-linejoin="round" stroke-width=".268"></path><path d="m.265 2.228 9.85 3.792v14.218l-9.85-8.53z" fill="#d2d2d4" fill-rule="evenodd" stroke="#83838a" stroke-linejoin="round" stroke-width=".265"></path><path d="m10.115 6.02 7.873-4.545L3.548.332.265 2.228z" fill="#ececed" fill-rule="evenodd" stroke="#83838a" stroke-linejoin="round" stroke-width=".265"></path><path d="m.265 11.707 9.85 8.531 7.873-4.317V1.475L3.392.271.265 2.077z" fill="none" stroke="#000000" stroke-width=".529"></path><path d="m22.429 3.65-8.208 4.74 14.827 10.397 3.231-1.865z" fill="#ececed" fill-rule="evenodd" stroke="#83838a" stroke-width=".268"></path><path d="M14.22 8.391v14.218l14.777 5.687.051-9.509z" fill="#d2d2d4" fill-rule="evenodd" stroke="#83838a" stroke-width=".265"></path><path d="m29.048 18.787 3.231-1.865V26.4l-3.282 1.897z" fill="#b8b8bb" fill-rule="evenodd" stroke="#83838a" stroke-width=".265"></path><path d="m22.429 3.65-8.208 4.74v14.22l14.776 5.686 3.282-1.896v-9.478z" fill="none" stroke="#000000" stroke-width=".529"></path><path d="M25.604 20.872c-.071-.975-.928-2.116-1.982-2.598a2.547 2.547 0 0 0-.398-.145c-.566-.909-1.446-1.739-2.441-2.194-1.501-.688-2.76-.294-3.057.871-1.061-.091-1.77.532-1.77 1.598 0 1.436 1.271 3.18 2.84 3.898l5.961 2.73c1.411.645 2.555.121 2.555-1.17 0-1.004-.695-2.2-1.708-2.99zm-.847 3.38-5.961-2.73c-1.099-.502-1.988-1.723-1.988-2.728 0-.917.74-1.337 1.704-1.022v-.018c0-1.149 1.016-1.614 2.27-1.04.95.435 1.763 1.34 2.102 2.252.198-.065.456-.042.738.087.626.287 1.135.986 1.135 1.56a.657.657 0 0 1-.156.455c.052.018.105.041.156.065.94.43 1.704 1.478 1.704 2.339 0 .86-.763 1.21-1.704.78z" fill="#4286c5"></path></svg></g></g><g opacity="1"><g id="9559d24b-a235-4a1f-921d-4a14073b2341" transform="translate(0 0)"><svg x="-584" y="682" height="95.068" width="63" viewBox="0 0 16.669 25.153"><path d="M16.668 22.903q0 1.64-.864 2.09-.865.452-2.296-.375L3.161 18.645q-1.432-.828-2.296-2.276Q.001 14.92 0 13.279q0-.724.042-1.39.042-.667.166-1.394.124-.728.313-1.303.19-.574.51-1.038.32-.464.733-.684.415-.219 1.013-.146.598.073 1.32.489.106.061.497.58.39.52.881 1.166.492.645 1.28 1.394.787.749 1.58 1.206.793.458 1.58.619.788.16 1.279.082.491-.078.882-.147.39-.068.497-.007.722.417 1.32 1.036.598.618 1.012 1.315.414.697.734 1.53.32.834.509 1.627.19.793.314 1.665.124.871.165 1.585.042.714.042 1.439zM12.88 8.509q0 2.173-1.331 2.942-1.332.77-3.214-.317T5.121 7.74Q3.789 5.434 3.789 3.26q0-2.173 1.332-2.942 1.332-.769 3.214.318 1.882 1.086 3.214 3.393 1.331 2.307 1.331 4.48z" fill="#000" stroke="#000000" stroke-width=".268"></path></svg></g></g><g opacity="1"><g id="153fe642-c09c-4b3d-be24-a59023169c1e" transform="translate(0 0)"><svg x="-473" y="771" height="93.28" width="81" viewBox="0 0 21.431 24.68"><path d="m.267 5.103 12.538 7.237 5.224-.603 3.134-9.048-4.18-2.412-15.67 1.81z" fill="#ececed" fill-rule="evenodd"></path><path d="M.267 5.103v12.063l12.538 7.238V12.34zm12.538 7.237 5.224-.603v12.064l-5.224.603z" fill="#d2d2d4" fill-rule="evenodd"></path><path d="m18.029 11.737 3.134-9.048v12.064l-3.134 9.048z" fill="#b8b8bb" fill-rule="evenodd"></path><path d="m.267 5.103 12.538 7.237 5.224-.603 3.134-9.048m-3.134 9.048v12.064M12.805 12.34v12.064" fill="none" stroke="#83838a" stroke-width=".265"></path><path d="m.267 17.166 12.538 7.238 5.224-.603 3.134-9.048V2.689L16.983.277l-15.67 1.81L.268 5.102z" fill="none" stroke="#000000" stroke-width=".529"></path><path d="M16.852 3.319c-.637-.01-1.269-.156-1.755-.437-.487-.28-.739-.645-.757-1.013l-3.498.035c.111.43-.12.884-.694 1.215-.363.21-.812.34-1.281.392-.625.067-1.226.241-1.71.52-1.272.736-1.277 1.926-.013 2.664.734.423 1.146.957 1.248 1.509.956.059 1.88.297 2.613.72 1.279.73 3.34.727 4.613-.008.484-.28.785-.626.903-.987.088-.27.314-.53.678-.74.573-.33 1.359-.464 2.104-.4l.06-2.02c-.636-.01-1.268-.156-1.754-.437-.487-.28-.739-.645-.757-1.013z" fill="none"></path><path d="M17.277 4.302c.467.27 1.056.427 1.664.471l-.05 1.693c-.73-.014-1.467.14-2.023.462-.404.234-.655.522-.754.824-.107.33-.382.647-.823.902-1.161.672-3.041.674-4.208.007-.722-.417-1.618-.665-2.554-.749-.145-.541-.574-1.06-1.296-1.478-1.152-.675-1.147-1.762.014-2.433.44-.255.988-.414 1.559-.476.521-.057 1.02-.203 1.424-.436.556-.322.823-.748.8-1.17l2.926-.03c.076.352.348.693.815.963.473.274 1.07.432 1.687.474.073.356.346.702.819.976z" fill="#4286c5" fill-rule="evenodd"></path><g fill="#ffffff" font-family="sans-serif" font-size="3.217" stroke-width=".268" style="line-height: 0%;"><path d="M177.61 45.984h2.004v.43h-1.537v.925q.112-.038.223-.056.11-.02.222-.02.632 0 1.001.346.369.346.369.938 0 .609-.38.948-.378.336-1.068.336-.238 0-.485-.04-.246-.041-.508-.122v-.513q.227.124.47.184.242.061.513.061.437 0 .692-.23.255-.23.255-.624t-.255-.624q-.255-.23-.692-.23-.205 0-.41.045-.202.046-.414.142zm4.837 1.739q.367.078.571.326.208.248.208.612 0 .558-.385.864-.384.306-1.091.306-.238 0-.49-.048-.25-.046-.519-.14v-.492q.212.124.465.187t.528.063q.48 0 .73-.19.254-.189.254-.55 0-.334-.235-.521-.233-.19-.65-.19h-.44v-.42h.46q.377 0 .576-.148.2-.152.2-.435 0-.29-.207-.445-.205-.157-.589-.157-.21 0-.45.046-.24.045-.528.142v-.455q.29-.081.543-.122.256-.04.48-.04.582 0 .92.265.34.263.34.713 0 .313-.18.53-.18.216-.51.299z" font-family="Interstate" font-size="5.176" transform="scale(1.31486 .76054) rotate(45 142.927 -178.732)" style="line-height: 1.25;"></path></g></svg></g></g></g><g pointer-events="auto"></g><g pointer-events="auto"><g opacity="1"><g id="e8a21bd1-1659-40cd-af28-927f3e494d42" transform="translate(0 0)"><svg x="384" y="259" overflow="visible"><g transform="scale(1.4131949617798671) matrix(0.707 0.409 -0.707 0.409 0 0)"><circle cx="0" cy="0" fill="transparent" r="39"></circle><svg width="64" height="64" x="-32" y="-32" style="fill: rgb(255, 255, 255);"><svg width="64" height="64" viewBox="0 0 64 64" xmlns="http://www.w3.org/2000/svg"><defs><linearGradient x1="0%" y1="100%" x2="100%" y2="0%" id="CloudWatch_svg__a"><stop stop-color="#B0084D" offset="0%"></stop><stop stop-color="#FF4F8B" offset="100%"></stop></linearGradient></defs><g fill="none" fill-rule="evenodd"><g fill="url(#CloudWatch_svg__a)"><path d="M0 0h64v64H0z"></path></g><path d="M42.184 39.381a4.095 4.095 0 0 0-8.189 0 4.095 4.095 0 0 0 8.189 0Zm2 0c0 3.353-2.734 6.081-6.095 6.081-3.36 0-6.094-2.728-6.094-6.08 0-3.354 2.734-6.082 6.094-6.082 3.361 0 6.095 2.728 6.095 6.081Zm6.559 10.235-4.897-4.4a9.992 9.992 0 0 1-1.061 1.19l4.886 4.397a.806.806 0 0 0 1.131-.059.801.801 0 0 0-.059-1.128Zm-12.654-2.524c4.262 0 7.729-3.46 7.729-7.71 0-4.252-3.467-7.711-7.729-7.711-4.26 0-7.727 3.459-7.727 7.71 0 4.251 3.467 7.71 7.727 7.71Zm13.992 1.042a2.796 2.796 0 0 1 .207 3.946c-.553.61-1.317.92-2.083.92a2.797 2.797 0 0 1-1.872-.713l-5.161-4.646a9.668 9.668 0 0 1-5.083 1.446c-5.364 0-9.727-4.354-9.727-9.706 0-5.352 4.363-9.706 9.727-9.706 5.365 0 9.729 4.354 9.729 9.706a9.61 9.61 0 0 1-.921 4.095l5.184 4.658ZM17.697 23.538c0 .401.023.8.07 1.185a.997.997 0 0 1-.806 1.101C15.084 26.308 12 27.772 12 32.157c0 3.323 1.836 5.157 3.377 6.11.672.423 1.263.638 1.761.643h8.989v1.996h-9c-.884-.01-1.827-.329-2.81-.947C12.708 38.964 10 36.62 10 32.157c0-5.27 3.526-7.293 5.71-8.04a13.965 13.965 0 0 1-.013-.579c0-4.378 2.976-8.916 6.924-10.56 4.611-1.927 9.498-.971 13.066 2.556 1.047 1.033 1.917 2.274 2.598 3.702a5.284 5.284 0 0 1 3.174-1.061c2.415 0 5.128 1.793 5.663 5.715C50.58 24.722 54 27.278 54 32.217c0 2.89-1.136 5.24-3.287 6.792l-1.172-1.616C51.173 36.214 52 34.473 52 32.217c0-4.978-4.189-6.217-5.99-6.519a.996.996 0 0 1-.824-1.127c-.255-3.04-2.045-4.401-3.727-4.401-1.057 0-2.05.516-2.725 1.416a.999.999 0 0 1-1.741-.26c-.634-1.752-1.547-3.223-2.712-4.375-1.43-1.411-5.348-4.444-10.89-2.132-3.193 1.33-5.694 5.16-5.694 8.72Z" fill="#FFF"></path></g></svg></svg></g></svg></g></g><g opacity="1"><g id="50a2d0cd-22d7-45f5-8a61-8d7937c787be" transform="translate(0 0)"><svg x="512" y="333" overflow="visible"><g transform="scale(1.4131949617798671) matrix(0.707 0.409 -0.707 0.409 0 0)"><circle cx="0" cy="0" fill="transparent" r="31"></circle><svg width="48" height="48" x="-24" y="-24" style="fill: rgb(255, 255, 255);"><svg width="48" height="48" viewBox="0 0 48 48" xmlns="http://www.w3.org/2000/svg"><g fill="none" fill-rule="evenodd"><path d="M29.5 17c-3.258 0-6.03 2.092-7.062 5h2.169a5.503 5.503 0 0 1 4.893-3c3.032 0 5.5 2.467 5.5 5.5 0 3.032-2.468 5.5-5.5 5.5a5.49 5.49 0 0 1-4.24-2h-2.388a7.505 7.505 0 0 0 6.628 4c4.136 0 7.5-3.364 7.5-7.5S33.636 17 29.5 17ZM2 33h13v-2H2v2Zm0-15h13v-2H2v2Zm0 8h27v-2H2v2Zm41.843 9.738-5.025-4.525a11.486 11.486 0 0 1-1.403 1.608l4.997 4.508a1.073 1.073 0 0 0 1.51-.08 1.075 1.075 0 0 0-.08-1.51Zm1.566 2.85a3.068 3.068 0 0 1-2.284 1.012 3.06 3.06 0 0 1-2.051-.785l-5.24-4.726A11.432 11.432 0 0 1 29.5 36c-5.12 0-9.467-3.366-10.951-8h2.128c1.397 3.51 4.822 6 8.823 6 5.238 0 9.5-4.262 9.5-9.5S34.738 15 29.5 15c-4.372 0-8.054 2.973-9.155 7h-2.063c1.146-5.143 5.737-9 11.218-9C35.84 13 41 18.158 41 24.5c0 1.777-.417 3.455-1.141 4.96l5.324 4.794a3.078 3.078 0 0 1 .226 4.334ZM1.999 41h19v-2H2v2Zm0-31h21V8H2v2Z" fill="#B0084D"></path></g></svg></svg></g></svg></g></g><g opacity="1"><g id="5c7ca9dc-cc98-4c41-827f-693bd11a7a7c" transform="translate(0 0)"><svg x="-448" y="703" overflow="visible"><g transform="scale(0.8944271909999159) matrix(0.707 0.409 -0.707 0.409 0 0)"><circle cx="0" cy="0" fill="#000000" r="23"></circle><svg width="21" height="32" x="-10.5" y="-16" style="fill: rgb(255, 255, 255);"><svg xmlns="http://www.w3.org/2000/svg" width="21" height="32" viewBox="0 0 21 32"><path d="M5.714 13.714h9.143v-3.429c0-2.518-2.054-4.571-4.571-4.571s-4.571 2.054-4.571 4.571v3.429zm14.857 1.715v10.286c0 .946-.768 1.714-1.714 1.714H1.714A1.715 1.715 0 0 1 0 25.715V15.429c0-.946.768-1.714 1.714-1.714h.571v-3.429c0-4.393 3.607-8 8-8s8 3.607 8 8v3.429h.571c.946 0 1.714.768 1.714 1.714z"></path></svg></svg></g></svg></g></g><g opacity="1"><g id="8e58e4be-3860-4efb-a41c-e6db62b61b35" transform="translate(0 0)"><svg x="256" y="185" overflow="visible"><g transform="scale(1.4131949617798671) matrix(0.707 0.409 -0.707 0.409 0 0)"><circle cx="0" cy="0" fill="transparent" r="39"></circle><svg width="64" height="64" x="-32" y="-32" style="fill: rgb(255, 255, 255);"><svg width="64" height="64" viewBox="0 0 64 64" xmlns="http://www.w3.org/2000/svg"><defs><linearGradient x1="0%" y1="100%" x2="100%" y2="0%" id="DynamoDB_svg__a"><stop stop-color="#2E27AD" offset="0%"></stop><stop stop-color="#527FFF" offset="100%"></stop></linearGradient></defs><g fill="none" fill-rule="evenodd"><g fill="url(#DynamoDB_svg__a)"><path d="M0 0h64v64H0z"></path></g><path d="M46.586 25.25H43a.998.998 0 0 1-.822-.435 1.018 1.018 0 0 1-.114-.931l2.493-6.722h-8.913l-4.091 9.098H36c.32 0 .623.156.812.42.187.264.239.602.136.91l-3.66 11.101L46.586 25.25Zm3.12-.297L31.709 43.15a.992.992 0 0 1-1.232.146 1.014 1.014 0 0 1-.423-1.18l4.56-13.833H30a1 1 0 0 1-.841-.463 1.024 1.024 0 0 1-.07-.966l5-11.12a.998.998 0 0 1 .91-.593h11c.329 0 .636.163.823.435.187.273.23.62.115.931l-2.494 6.721H49a1 1 0 0 1 .924.624c.155.378.069.813-.217 1.102ZM41.002 44.22c-2.71 1.886-7.687 2.882-12.468 2.882-4.816 0-9.837-1.01-12.533-2.924l.001 3.816c0 1.664 4.768 3.984 12.532 3.984 7.495 0 12.468-2.702 12.468-4.49V44.22Zm2.064-3.27c0 .187-.032.367-.064.546v5.993C43 51.079 36.51 54 28.533 54c-6.903 0-13.871-1.89-14.473-5.5h-.059L14 43.445V16.151h.001c0-3.996 7.487-6.151 14.532-6.151 3.94 0 7.73.64 10.397 1.756l-.766 1.868c-2.432-1.019-5.943-1.602-9.631-1.602-7.764 0-12.532 2.405-12.532 4.13 0 1.724 4.768 4.129 12.532 4.129.195 0 .399 0 .596-.007l.078 2.02c-.225.009-.45.009-.674.009-4.817 0-9.837-1.01-12.533-2.924v4.358h.001v.017c.005.53.489 1.143 1.364 1.72 1.982 1.288 5.55 2.168 9.539 2.351l-.091 2.02c-4.126-.19-7.75-1.069-10.086-2.416-.31.298-.726 1.056-.726 1.467 0 1.724 4.768 4.129 12.532 4.129.738 0 1.465-.025 2.162-.075l.14 2.017c-.743.054-1.518.08-2.302.08-4.817 0-9.837-1.009-12.533-2.924v3.67h.001c.005.547.489 1.16 1.364 1.737 2.268 1.474 6.549 2.393 11.168 2.393h.33v2.022h-.33c-4.778 0-9.86-1.008-12.532-2.543-.322.298 0 1.01 0 1.548 0 1.725 4.768 4.13 12.532 4.13 7.765 0 12.532-2.405 12.532-4.13 0-.61-.6-1.174-1.092-1.538-.41.247-.86.483-1.372.7l-.768-1.868c.53-.223.99-.463 1.364-.711 1.1-.734 1.804-1.779 1.804-2.175h2c0 .94-.621 1.947-1.417 2.775 1.192 1.04 1.48 2.078 1.48 2.817ZM17.142 48.39c.791.408 1.716.772 2.752 1.08l.564-1.94a13.863 13.863 0 0 1-2.406-.94l-.91 1.8Zm2.752-11.05.564-1.94c-.916-.272-1.726-.589-2.406-.94l-.91 1.799c.791.41 1.716.772 2.752 1.08Zm-2.752-13.21.91-1.801c.68.352 1.49.668 2.406.94l-.564 1.94a15.945 15.945 0 0 1-2.752-1.08Z" fill="#FFF"></path></g></svg></svg></g></svg></g></g></g><g pointer-events="auto"><g opacity="1"><g id="0006d755-99dc-4560-875b-0f4c07d14449" transform="translate(0 0)"><svg x="560" y="342" overflow="visible"><text stroke="#ffffff" stroke-width="4" font-family="Open Sans" y="36.5" font-size="25pt" fill="#000000" font-weight="bold" transform="matrix(0.707 0.409 -0.707 0.409 0 0)" xml:space="preserve"><tspan x="8" dy="0">Logs</tspan></text><text font-family="Open Sans" y="36.5" font-size="25pt" fill="#000000" font-weight="bold" transform="matrix(0.707 0.409 -0.707 0.409 0 0)" xml:space="preserve"><tspan x="8" dy="0">Logs</tspan></text></svg></g></g><g opacity="1"><g id="9ab6f4ea-ead1-4598-b84d-efb5a397579e" transform="translate(0 0)"><svg x="16" y="490" overflow="visible"><text stroke="#ffffff" stroke-width="4" font-family="Open Sans" y="36.5" font-size="25pt" fill="#000000" font-weight="bold" transform="matrix(0.707 -0.409 0.707 0.409 0 0)" xml:space="preserve"><tspan x="8" dy="0">API Replicas</tspan></text><text font-family="Open Sans" y="36.5" font-size="25pt" fill="#000000" font-weight="bold" transform="matrix(0.707 -0.409 0.707 0.409 0 0)" xml:space="preserve"><tspan x="8" dy="0">API Replicas</tspan></text></svg></g></g><g opacity="1"><g id="0d9dbac0-8e8c-48a3-a695-993032c87018" transform="translate(0 0)"><svg x="-192" y="611" overflow="visible"><text stroke="#ffffff" stroke-width="4" font-family="Open Sans" y="36.5" font-size="25pt" fill="#000000" font-weight="bold" transform="matrix(0.707 0.409 -0.707 0.409 0 0)" xml:space="preserve"><tspan x="8" dy="0">Load Balancer</tspan></text><text font-family="Open Sans" y="36.5" font-size="25pt" fill="#000000" font-weight="bold" transform="matrix(0.707 0.409 -0.707 0.409 0 0)" xml:space="preserve"><tspan x="8" dy="0">Load Balancer</tspan></text></svg></g></g><g opacity="1"><g id="ad71606b-8707-4e87-b2bf-ca1a35b7067a" transform="translate(0 0)"><svg x="-656" y="564" overflow="visible"><text stroke="#ffffff" stroke-width="4" font-family="Open Sans" y="36.5" font-size="25pt" fill="#000000" font-weight="bold" transform="matrix(0.707 0.409 -0.707 0.409 0 0)" xml:space="preserve"><tspan x="8" dy="0">TLS Termination</tspan></text><text font-family="Open Sans" y="36.5" font-size="25pt" fill="#000000" font-weight="bold" transform="matrix(0.707 0.409 -0.707 0.409 0 0)" xml:space="preserve"><tspan x="8" dy="0">TLS Termination</tspan></text></svg></g></g><g opacity="1"><g id="98c93073-32a5-48bb-b49d-9ecd20915e64" transform="translate(0 0)"><svg x="-368" y="842" overflow="visible"><text stroke="#ffffff" stroke-width="4" font-family="Open Sans" y="36.5" font-size="25pt" fill="#000000" font-weight="bold" transform="matrix(0.707 0.409 -0.707 0.409 0 0)" xml:space="preserve"><tspan x="8" dy="0">DNS</tspan></text><text font-family="Open Sans" y="36.5" font-size="25pt" fill="#000000" font-weight="bold" transform="matrix(0.707 0.409 -0.707 0.409 0 0)" xml:space="preserve"><tspan x="8" dy="0">DNS</tspan></text></svg></g></g><g opacity="1"><g id="7fd40f29-60d4-4c94-8b3d-660006de1a76" transform="translate(0 0)"><svg x="112" y="83" overflow="visible"><text stroke="#ffffff" stroke-width="4" font-family="Open Sans" y="36.5" font-size="25pt" fill="#000000" font-weight="bold" transform="matrix(0.707 0.409 -0.707 0.409 0 0)" xml:space="preserve"><tspan x="8" dy="0">Database</tspan></text><text font-family="Open Sans" y="36.5" font-size="25pt" fill="#000000" font-weight="bold" transform="matrix(0.707 0.409 -0.707 0.409 0 0)" xml:space="preserve"><tspan x="8" dy="0">Database</tspan></text></svg></g></g></g><g pointer-events="auto"><g></g><g></g><g></g><g></g><g></g><g></g><g></g><g></g><g></g><g></g></g></g></svg>